<?xml version="1.0" encoding="UTF-8" standalone="no"?>
<!-- Created with Inkscape (http://www.inkscape.org/) -->

<svg
   xmlns:dc="http://purl.org/dc/elements/1.1/"
   xmlns:cc="http://creativecommons.org/ns#"
   xmlns:rdf="http://www.w3.org/1999/02/22-rdf-syntax-ns#"
   xmlns:svg="http://www.w3.org/2000/svg"
   xmlns="http://www.w3.org/2000/svg"
   xmlns:sodipodi="http://sodipodi.sourceforge.net/DTD/sodipodi-0.dtd"
   xmlns:inkscape="http://www.inkscape.org/namespaces/inkscape"
   width="510"
   height="160"
   viewBox="0 0 134.93748 42.333336"
   version="1.1"
   id="svg8"
   inkscape:version="0.92.4 (5da689c313, 2019-01-14)"
   sodipodi:docname="Authentcation header structure-en.svg">
  <defs
     id="defs2" />
  <sodipodi:namedview
     id="base"
     pagecolor="#ffffff"
     bordercolor="#666666"
     borderopacity="1.0"
     inkscape:pageopacity="0.0"
     inkscape:pageshadow="2"
     inkscape:zoom="1.979899"
     inkscape:cx="201.40342"
     inkscape:cy="116.31531"
     inkscape:document-units="mm"
     inkscape:current-layer="layer1"
     showgrid="false"
     inkscape:window-width="1920"
     inkscape:window-height="986"
     inkscape:window-x="-11"
     inkscape:window-y="-11"
     inkscape:window-maximized="1"
     units="px" />
  <metadata
     id="metadata5">
    <rdf:RDF>
      <cc:Work
         rdf:about="">
        <dc:format>image/svg+xml</dc:format>
        <dc:type
           rdf:resource="http://purl.org/dc/dcmitype/StillImage" />
        <dc:title />
      </cc:Work>
    </rdf:RDF>
  </metadata>
  <g
     inkscape:label="Layer 1"
     inkscape:groupmode="layer"
     id="layer1"
     transform="translate(0,-254.66664)">
    <g
       aria-label="28"
       style="font-style:normal;font-variant:normal;font-weight:normal;font-stretch:normal;font-size:3.52777767px;line-height:1.25;font-family:Calibri;-inkscape-font-specification:Calibri;letter-spacing:0px;word-spacing:0px;fill:#000000;fill-opacity:1;stroke:none;stroke-width:0.26458332"
       id="text1091"
       transform="translate(0.93544334,-21.916101)" />
    <path
       inkscape:connector-curvature="0"
       style="opacity:1;fill:none;fill-opacity:1;fill-rule:nonzero;stroke:#000000;stroke-width:0.26458332;stroke-miterlimit:4;stroke-dasharray:none;stroke-dashoffset:0;stroke-opacity:1;paint-order:fill markers stroke"
       d="M 2.8167944,258.54961 H 34.897526 v 6.85081 H 2.8167944 Z"
       id="rect821-7-0-6" />
    <path
       inkscape:connector-curvature="0"
       style="opacity:1;fill:none;fill-opacity:1;fill-rule:nonzero;stroke:#000000;stroke-width:0.26458332;stroke-miterlimit:4;stroke-dasharray:none;stroke-dashoffset:0;stroke-opacity:1;paint-order:fill markers stroke"
       d="m 34.897526,258.54961 h 32.080731 v 6.85081 H 34.897526 Z"
       id="rect821-7-0-6-2" />
    <g
       transform="translate(0.2488253,29.630549)"
       aria-label="0"
       style="font-style:normal;font-variant:normal;font-weight:normal;font-stretch:normal;font-size:3.52777767px;line-height:1.25;font-family:Calibri;-inkscape-font-specification:Calibri;letter-spacing:0px;word-spacing:0px;fill:#000000;fill-opacity:1;stroke:none;stroke-width:0.26458332"
       id="text1183">
      <path
         inkscape:connector-curvature="0"
         d="m 4.1703015,227.10126 q 0,0.25666 -0.041341,0.46853 -0.039619,0.21188 -0.1343587,0.36518 -0.093018,0.15159 -0.2446018,0.23599 -0.1515842,0.0827 -0.3737929,0.0827 -0.2101508,0 -0.3548448,-0.0741 -0.1429714,-0.0758 -0.2308214,-0.22049 -0.08785,-0.14642 -0.125746,-0.35829 -0.036174,-0.2136 -0.036174,-0.4892 0,-0.25494 0.041341,-0.46681 0.041341,-0.2136 0.1343587,-0.36518 0.093018,-0.15331 0.2446018,-0.23599 0.1515842,-0.0844 0.3720703,-0.0844 0.2118733,0 0.3548448,0.0758 0.144694,0.0741 0.2325439,0.22049 0.08785,0.14469 0.1240235,0.35829 0.037896,0.21187 0.037897,0.48748 z m -0.3031684,0.0207 q 0,-0.16709 -0.012058,-0.29972 -0.012058,-0.13264 -0.036174,-0.23427 -0.022393,-0.10163 -0.060289,-0.17398 -0.036174,-0.0741 -0.08785,-0.12057 -0.051676,-0.0482 -0.1188558,-0.0689 -0.065457,-0.0224 -0.1481391,-0.0224 -0.1464166,0 -0.2377116,0.0689 -0.091295,0.0689 -0.144694,0.18948 -0.051676,0.12058 -0.070624,0.2825 -0.018948,0.16192 -0.018948,0.34796 0,0.24976 0.025838,0.42546 0.025838,0.17398 0.08096,0.28423 0.056844,0.11024 0.1429714,0.16019 0.08785,0.05 0.2118734,0.05 0.096463,0 0.1688097,-0.031 0.074069,-0.031 0.125746,-0.0879 0.053399,-0.0586 0.08785,-0.13953 0.034451,-0.081 0.055121,-0.17914 0.020671,-0.0982 0.027561,-0.21187 0.00861,-0.11542 0.00861,-0.23944 z"
         style="stroke-width:0.26458332"
         id="path1553" />
    </g>
    <g
       transform="translate(0.2488253,29.630549)"
       aria-label="15"
       style="font-style:normal;font-variant:normal;font-weight:normal;font-stretch:normal;font-size:3.52777767px;line-height:1.25;font-family:Calibri;-inkscape-font-specification:Calibri;letter-spacing:0px;word-spacing:0px;fill:#000000;fill-opacity:1;stroke:none;stroke-width:0.26458332"
       id="text1183-2">
      <path
         inkscape:connector-curvature="0"
         d="m 63.966396,228.09516 q 0,0.0327 -0.0052,0.0551 -0.0052,0.0224 -0.01378,0.0362 -0.0086,0.0138 -0.02067,0.0207 -0.01034,0.005 -0.02239,0.005 h -1.164443 q -0.01206,0 -0.02239,-0.005 -0.01033,-0.007 -0.02067,-0.0207 -0.0086,-0.0138 -0.01378,-0.0362 -0.0052,-0.0224 -0.0052,-0.0551 0,-0.031 0.0052,-0.0534 0.0052,-0.0224 0.01206,-0.0362 0.0086,-0.0155 0.01895,-0.0224 0.01206,-0.009 0.02584,-0.009 h 0.465088 v -1.69498 l -0.430637,0.25666 q -0.03273,0.0172 -0.0534,0.0207 -0.01895,0.003 -0.03101,-0.007 -0.01206,-0.0121 -0.01722,-0.0379 -0.0034,-0.0258 -0.0034,-0.0655 0,-0.0293 0.0017,-0.0499 0.0034,-0.0207 0.0086,-0.0344 0.0052,-0.0138 0.01378,-0.0241 0.01033,-0.0103 0.02584,-0.0207 l 0.513319,-0.329 q 0.0069,-0.005 0.01723,-0.009 0.01034,-0.003 0.02584,-0.007 0.0155,-0.003 0.03617,-0.003 0.02067,-0.002 0.05168,-0.002 0.04134,0 0.0689,0.003 0.02756,0.003 0.04306,0.0103 0.0155,0.005 0.02067,0.0155 0.0052,0.009 0.0052,0.019 v 1.95853 h 0.403077 q 0.01378,0 0.02584,0.009 0.01206,0.007 0.01895,0.0224 0.0086,0.0138 0.01206,0.0362 0.0052,0.0224 0.0052,0.0534 z"
         style="stroke-width:0.26458332"
         id="path1577" />
      <path
         inkscape:connector-curvature="0"
         d="m 65.742343,227.49572 q 0,0.17914 -0.06029,0.31867 -0.06029,0.13952 -0.170532,0.23599 -0.110244,0.0947 -0.26355,0.14469 -0.151584,0.05 -0.33762,0.05 -0.103352,0 -0.19637,-0.0155 -0.09302,-0.0138 -0.165365,-0.0345 -0.07235,-0.0224 -0.118855,-0.0431 -0.04651,-0.0207 -0.06029,-0.0327 -0.01206,-0.0121 -0.01722,-0.0224 -0.0052,-0.0103 -0.01034,-0.0241 -0.0034,-0.0155 -0.0052,-0.0379 -0.0017,-0.0224 -0.0017,-0.0534 0,-0.0293 0.0017,-0.0517 0.0034,-0.0241 0.01033,-0.0379 0.0069,-0.0155 0.0155,-0.0224 0.01033,-0.007 0.02239,-0.007 0.01723,0 0.0534,0.0224 0.03617,0.0207 0.09646,0.0465 0.06201,0.0241 0.151584,0.0465 0.0913,0.0224 0.215319,0.0224 0.11541,0 0.211873,-0.0276 0.09646,-0.0276 0.165365,-0.0861 0.07062,-0.0586 0.110243,-0.14641 0.03962,-0.0896 0.03962,-0.21704 0,-0.1068 -0.03445,-0.18776 -0.03273,-0.0827 -0.103353,-0.13608 -0.0689,-0.0551 -0.175699,-0.081 -0.106798,-0.0276 -0.254938,-0.0276 -0.105075,0 -0.180867,0.0103 -0.07579,0.0103 -0.141249,0.0103 -0.04823,0 -0.0689,-0.0224 -0.02067,-0.0224 -0.02067,-0.0861 v -0.90779 q 0,-0.0568 0.02584,-0.0844 0.02756,-0.0276 0.07751,-0.0276 h 0.98702 q 0.01378,0 0.02584,0.009 0.01378,0.007 0.02239,0.0224 0.0086,0.0155 0.01206,0.0396 0.0052,0.0241 0.0052,0.0568 0,0.062 -0.01722,0.0965 -0.01723,0.0345 -0.04823,0.0345 h -0.83199 v 0.62529 q 0.06029,-0.009 0.122301,-0.0103 0.06373,-0.002 0.146416,-0.002 0.191203,0 0.334174,0.0465 0.142972,0.0448 0.237712,0.12919 0.09646,0.0827 0.144694,0.20154 0.04995,0.11885 0.04995,0.26355 z"
         style="stroke-width:0.26458332"
         id="path1579" />
    </g>
    <g
       transform="translate(0.24882533,29.630549)"
       aria-label="31"
       style="font-style:normal;font-variant:normal;font-weight:normal;font-stretch:normal;font-size:3.52777767px;line-height:1.25;font-family:Calibri;-inkscape-font-specification:Calibri;letter-spacing:0px;word-spacing:0px;fill:#000000;fill-opacity:1;stroke:none;stroke-width:0.26458332;stroke-miterlimit:4;stroke-dasharray:none"
       id="text1183-4">
      <path
         inkscape:connector-curvature="0"
         d="m 129.24798,227.58357 q 0,0.15331 -0.0534,0.27733 -0.0534,0.12231 -0.15331,0.21016 -0.0999,0.0879 -0.24633,0.13608 -0.14641,0.0465 -0.33072,0.0465 -0.11197,0 -0.21016,-0.0189 -0.0965,-0.0172 -0.17225,-0.0413 -0.0758,-0.0258 -0.12575,-0.0517 -0.0499,-0.0276 -0.0637,-0.0396 -0.0121,-0.0121 -0.019,-0.0241 -0.007,-0.0121 -0.0121,-0.0293 -0.005,-0.0172 -0.009,-0.0413 -0.002,-0.0258 -0.002,-0.062 0,-0.062 0.0121,-0.0861 0.0121,-0.0241 0.0344,-0.0241 0.0155,0 0.0603,0.0276 0.0465,0.0276 0.11713,0.0603 0.0724,0.031 0.16709,0.0586 0.0965,0.0276 0.21359,0.0276 0.11369,0 0.19982,-0.0293 0.0861,-0.0293 0.14469,-0.0827 0.0586,-0.0534 0.0879,-0.12575 0.0293,-0.0741 0.0293,-0.1602 0,-0.0947 -0.0379,-0.17053 -0.0362,-0.0758 -0.10852,-0.13091 -0.0706,-0.0551 -0.1757,-0.0844 -0.10335,-0.0293 -0.23599,-0.0293 h -0.21187 q -0.0138,0 -0.0276,-0.005 -0.0121,-0.007 -0.0224,-0.0207 -0.009,-0.0138 -0.0155,-0.0362 -0.005,-0.0224 -0.005,-0.0586 0,-0.0327 0.005,-0.0534 0.005,-0.0224 0.0138,-0.0344 0.0103,-0.0138 0.0224,-0.019 0.0121,-0.007 0.0276,-0.007 h 0.19465 q 0.11369,0 0.20326,-0.0293 0.0913,-0.0293 0.15331,-0.0844 0.0637,-0.0551 0.0965,-0.13092 0.0344,-0.0775 0.0344,-0.17225 0,-0.0689 -0.0224,-0.13092 -0.0224,-0.0637 -0.0672,-0.11024 -0.0448,-0.0465 -0.11541,-0.0724 -0.0689,-0.0276 -0.1602,-0.0276 -0.0999,0 -0.18431,0.031 -0.0827,0.0293 -0.14814,0.0637 -0.0655,0.0344 -0.10852,0.0655 -0.0431,0.0293 -0.0603,0.0293 -0.0121,0 -0.0224,-0.003 -0.009,-0.005 -0.0155,-0.0172 -0.005,-0.0138 -0.009,-0.0362 -0.002,-0.0241 -0.002,-0.062 0,-0.0258 0.002,-0.0448 0.002,-0.0207 0.007,-0.0344 0.005,-0.0155 0.0121,-0.0276 0.007,-0.0121 0.0224,-0.0276 0.0172,-0.0172 0.0672,-0.0482 0.05,-0.031 0.1223,-0.0603 0.0741,-0.031 0.16881,-0.0517 0.0965,-0.0207 0.20671,-0.0207 0.15503,0 0.27216,0.0396 0.11714,0.0396 0.19465,0.11197 0.0792,0.0723 0.11713,0.17397 0.0396,0.0999 0.0396,0.22221 0,0.10508 -0.0276,0.19637 -0.0276,0.0896 -0.081,0.1602 -0.0534,0.0689 -0.13091,0.11885 -0.0775,0.0482 -0.17915,0.0672 v 0.003 q 0.11541,0.0121 0.21015,0.0586 0.0965,0.0448 0.16537,0.11368 0.0689,0.0689 0.1068,0.16192 0.0396,0.0913 0.0396,0.19637 z"
         style="stroke-width:0.26458332;stroke-miterlimit:4;stroke-dasharray:none"
         id="path1592" />
      <path
         inkscape:connector-curvature="0"
         d="m 131.06183,228.10378 q 0,0.0327 -0.005,0.0551 -0.005,0.0224 -0.0138,0.0362 -0.009,0.0138 -0.0207,0.0207 -0.0103,0.005 -0.0224,0.005 h -1.16445 q -0.0121,0 -0.0224,-0.005 -0.0103,-0.007 -0.0207,-0.0207 -0.009,-0.0138 -0.0138,-0.0362 -0.005,-0.0224 -0.005,-0.0551 0,-0.031 0.005,-0.0534 0.005,-0.0224 0.0121,-0.0362 0.009,-0.0155 0.0189,-0.0224 0.012,-0.009 0.0258,-0.009 h 0.46509 v -1.69499 l -0.43064,0.25666 q -0.0327,0.0172 -0.0534,0.0207 -0.0189,0.003 -0.031,-0.007 -0.0121,-0.0121 -0.0172,-0.0379 -0.003,-0.0258 -0.003,-0.0654 0,-0.0293 0.002,-0.05 0.003,-0.0207 0.009,-0.0344 0.005,-0.0138 0.0138,-0.0241 0.0103,-0.0103 0.0258,-0.0207 l 0.51332,-0.329 q 0.007,-0.005 0.0172,-0.009 0.0103,-0.003 0.0258,-0.007 0.0155,-0.003 0.0362,-0.003 0.0207,-0.002 0.0517,-0.002 0.0413,0 0.0689,0.003 0.0276,0.003 0.0431,0.0103 0.0155,0.005 0.0207,0.0155 0.005,0.009 0.005,0.0189 v 1.95854 h 0.40308 q 0.0138,0 0.0258,0.009 0.0121,0.007 0.0189,0.0224 0.009,0.0138 0.0121,0.0362 0.005,0.0224 0.005,0.0534 z"
         style="stroke-width:0.26458332;stroke-miterlimit:4;stroke-dasharray:none"
         id="path1594" />
    </g>
    <g
       transform="translate(1.0720903,29.630169)"
       aria-label="16"
       style="font-style:normal;font-variant:normal;font-weight:normal;font-stretch:normal;font-size:3.52777767px;line-height:1.25;font-family:Calibri;-inkscape-font-specification:Calibri;letter-spacing:0px;word-spacing:0px;fill:#000000;fill-opacity:1;stroke:none;stroke-width:0.26458332"
       id="text1183-52">
      <path
         inkscape:connector-curvature="0"
         d="m 68.093308,228.10293 q 0,0.0327 -0.0052,0.0551 -0.0052,0.0224 -0.01378,0.0362 -0.0086,0.0138 -0.02067,0.0207 -0.01034,0.005 -0.02239,0.005 h -1.164442 q -0.01206,0 -0.02239,-0.005 -0.01034,-0.007 -0.02067,-0.0207 -0.0086,-0.0138 -0.01378,-0.0362 -0.0052,-0.0224 -0.0052,-0.0551 0,-0.031 0.0052,-0.0534 0.0052,-0.0224 0.01206,-0.0362 0.0086,-0.0155 0.01895,-0.0224 0.01206,-0.009 0.02584,-0.009 h 0.465088 v -1.69499 l -0.430637,0.25666 q -0.03273,0.0172 -0.0534,0.0207 -0.01895,0.003 -0.03101,-0.007 -0.01206,-0.012 -0.01723,-0.0379 -0.0034,-0.0258 -0.0034,-0.0655 0,-0.0293 0.0017,-0.0499 0.0034,-0.0207 0.0086,-0.0345 0.0052,-0.0138 0.01378,-0.0241 0.01033,-0.0103 0.02584,-0.0207 l 0.513319,-0.32901 q 0.0069,-0.005 0.01723,-0.009 0.01033,-0.003 0.02584,-0.007 0.0155,-0.003 0.03617,-0.003 0.02067,-0.002 0.05168,-0.002 0.04134,0 0.0689,0.003 0.02756,0.003 0.04306,0.0103 0.0155,0.005 0.02067,0.0155 0.0052,0.009 0.0052,0.0189 v 1.95854 h 0.403076 q 0.01378,0 0.02584,0.009 0.01206,0.007 0.01895,0.0224 0.0086,0.0138 0.01206,0.0362 0.0052,0.0224 0.0052,0.0534 z"
         style="stroke-width:0.26458332"
         id="path1572" />
      <path
         inkscape:connector-curvature="0"
         d="m 69.936434,227.49831 q 0,0.14642 -0.04479,0.28423 -0.04479,0.13608 -0.137803,0.24115 -0.09302,0.10335 -0.235989,0.16709 -0.142972,0.062 -0.33762,0.062 -0.139526,0 -0.246324,-0.0344 -0.106798,-0.0345 -0.186035,-0.0982 -0.07924,-0.0637 -0.132636,-0.15675 -0.05168,-0.093 -0.08441,-0.21187 -0.03101,-0.11886 -0.04479,-0.26011 -0.01378,-0.14124 -0.01378,-0.30316 0,-0.14298 0.0155,-0.28939 0.0155,-0.14642 0.05512,-0.2825 0.03962,-0.13608 0.106797,-0.25494 0.0689,-0.12058 0.170533,-0.20842 0.103353,-0.0896 0.246324,-0.14125 0.142971,-0.0517 0.332452,-0.0517 0.06373,0 0.129191,0.009 0.06546,0.007 0.120578,0.0207 0.05512,0.0121 0.09302,0.0276 0.0379,0.0155 0.04995,0.0258 0.01206,0.009 0.01722,0.0207 0.0069,0.0103 0.01033,0.0241 0.0034,0.0121 0.0052,0.0293 0.0017,0.0155 0.0017,0.0396 0,0.031 -0.0017,0.0534 0,0.0224 -0.0069,0.0362 -0.0052,0.0138 -0.0155,0.0207 -0.0086,0.007 -0.02412,0.007 -0.01895,0 -0.05168,-0.0121 -0.03273,-0.0121 -0.07924,-0.0258 -0.04651,-0.0155 -0.113689,-0.0276 -0.06546,-0.0121 -0.153306,-0.0121 -0.160197,0 -0.275608,0.0655 -0.115411,0.0654 -0.18948,0.1757 -0.07235,0.11024 -0.108521,0.25666 -0.03445,0.14469 -0.03962,0.30316 0.04479,-0.0258 0.09991,-0.0517 0.05684,-0.0258 0.122301,-0.0465 0.06718,-0.0207 0.141249,-0.0327 0.07407,-0.0138 0.158475,-0.0138 0.180867,0 0.304891,0.0499 0.124023,0.0482 0.199815,0.13608 0.07751,0.0861 0.110243,0.20499 0.03273,0.11713 0.03273,0.25493 z m -0.299724,0.0276 q 0,-0.0999 -0.02067,-0.18087 -0.01895,-0.0827 -0.06546,-0.13953 -0.04651,-0.0568 -0.124024,-0.0879 -0.07751,-0.031 -0.191202,-0.031 -0.06373,0 -0.127469,0.012 -0.06373,0.0103 -0.124023,0.031 -0.05857,0.0189 -0.113688,0.0465 -0.0534,0.0258 -0.09819,0.0568 0,0.22221 0.02756,0.37207 0.02928,0.14986 0.08268,0.24116 0.05512,0.0896 0.136082,0.12919 0.08096,0.0379 0.18948,0.0379 0.110243,0 0.191203,-0.0413 0.08096,-0.0413 0.134358,-0.11025 0.0534,-0.0706 0.07752,-0.15675 0.02584,-0.0879 0.02584,-0.17914 z"
         style="stroke-width:0.26458332"
         id="path1574" />
    </g>
    <path
       inkscape:connector-curvature="0"
       style="opacity:1;fill:none;fill-opacity:1;fill-rule:nonzero;stroke:#000000;stroke-width:0.26458332;stroke-miterlimit:4;stroke-dasharray:none;stroke-dashoffset:0;stroke-opacity:1;paint-order:fill markers stroke"
       d="m 66.978257,258.54961 h 64.423663 v 6.85081 H 66.978257 Z"
       id="rect821-7-0-6-2-8" />
    <path
       inkscape:connector-curvature="0"
       style="opacity:1;fill:none;fill-opacity:1;fill-rule:nonzero;stroke:#000000;stroke-width:0.26486355;stroke-miterlimit:4;stroke-dasharray:none;stroke-dashoffset:0;stroke-opacity:1;paint-order:fill markers stroke"
       d="M 2.8167944,265.40042 H 131.40192 v 6.59603 H 2.8167944 Z"
       id="rect821-7-0-6-1" />
    <path
       inkscape:connector-curvature="0"
       style="opacity:1;fill:none;fill-opacity:1;fill-rule:nonzero;stroke:#000000;stroke-width:0.26486355;stroke-miterlimit:4;stroke-dasharray:none;stroke-dashoffset:0;stroke-opacity:1;paint-order:fill markers stroke"
       d="M 2.8167935,271.99645 H 131.40192 v 6.59603 H 2.8167935 Z"
       id="rect821-7-0-6-1-5" />
    <text
       xml:space="preserve"
       style="font-style:normal;font-variant:normal;font-weight:normal;font-stretch:normal;font-size:3.52777767px;line-height:1.25;font-family:Calibri;-inkscape-font-specification:Calibri;letter-spacing:0px;word-spacing:0px;fill:#000000;fill-opacity:1;stroke:none;stroke-width:0.26458332"
       x="49.089787"
       y="269.58124"
       id="text952"><tspan
         sodipodi:role="line"
         id="tspan950"
         x="49.089787"
         y="269.58124"
         style="stroke-width:0.26458332">Security parameter index</tspan></text>
    <path
       style="fill:none;stroke:#000000;stroke-width:0.26458332px;stroke-linecap:butt;stroke-linejoin:miter;stroke-opacity:1"
       d="m 131.40192,285.18851 2.29406,0.0161 -4.09569,3.99535"
       id="path877"
       inkscape:connector-curvature="0"
       sodipodi:nodetypes="ccc" />
    <path
       style="fill:none;stroke:#000000;stroke-width:0.26458332px;stroke-linecap:butt;stroke-linejoin:miter;stroke-opacity:1"
       d="m 131.53852,289.2447 1e-5,4.05916"
       id="path879"
       inkscape:connector-curvature="0"
       sodipodi:nodetypes="cc" />
    <path
       style="fill:none;stroke:#000000;stroke-width:0.26458332px;stroke-linecap:butt;stroke-linejoin:miter;stroke-opacity:1"
       d="m 129.50875,289.2413 2.15939,4.5e-4"
       id="path877-1"
       inkscape:connector-curvature="0"
       sodipodi:nodetypes="cc" />
    <g
       id="g950"
       transform="translate(-18.339458,17.637386)">
      <g
         id="g945">
        <path
           style="fill:none;stroke:#000000;stroke-width:0.26458332px;stroke-linecap:butt;stroke-linejoin:miter;stroke-opacity:1"
           d="m 21.155346,267.50213 2.29406,0.0161 -4.09569,3.99535"
           id="path877-17"
           inkscape:connector-curvature="0"
           sodipodi:nodetypes="ccc" />
      </g>
      <path
         sodipodi:nodetypes="cc"
         inkscape:connector-curvature="0"
         id="path877-1-3"
         d="m 19.259216,271.55788 2.16043,0.0161"
         style="fill:none;stroke:#000000;stroke-width:0.26458332px;stroke-linecap:butt;stroke-linejoin:miter;stroke-opacity:1" />
    </g>
    <g
       id="g990"
       transform="translate(-16.72666,25.145761)">
      <path
         sodipodi:nodetypes="cc"
         inkscape:connector-curvature="0"
         id="path879-8-1"
         d="m 19.685742,263.92779 v 6.85081"
         style="fill:none;stroke:#000000;stroke-width:0.26458332px;stroke-linecap:butt;stroke-linejoin:miter;stroke-opacity:1" />
    </g>
    <path
       style="fill:none;stroke:#000000;stroke-width:0.26458332px;stroke-linecap:butt;stroke-linejoin:miter;stroke-opacity:1"
       d="m 131.53853,293.30386 -0.002,2.77063"
       id="path879-8-7"
       inkscape:connector-curvature="0"
       sodipodi:nodetypes="cc" />
    <path
       style="fill:none;stroke:#000000;stroke-width:0.26458332px;stroke-linecap:butt;stroke-linejoin:miter;stroke-opacity:1"
       d="m 2.9590826,295.92437 128.6923974,0.0202"
       id="path1019"
       inkscape:connector-curvature="0"
       sodipodi:nodetypes="cc" />
    <text
       xml:space="preserve"
       style="font-style:normal;font-variant:normal;font-weight:normal;font-stretch:normal;font-size:4.93888903px;line-height:1.25;font-family:Calibri;-inkscape-font-specification:Calibri;letter-spacing:0px;word-spacing:0px;fill:#000000;fill-opacity:1;stroke:none;stroke-width:0.26458332"
       x="45.413696"
       y="288.41498"
       id="text952-2"><tspan
         sodipodi:role="line"
         id="tspan950-0"
         x="45.413696"
         y="288.41498"
         style="stroke-width:0.26458332">  Integrity check value</tspan></text>
    <text
       xml:space="preserve"
       style="font-style:normal;font-variant:normal;font-weight:normal;font-stretch:normal;font-size:3.52777767px;line-height:1.25;font-family:Calibri;-inkscape-font-specification:Calibri;letter-spacing:0px;word-spacing:0px;fill:#000000;fill-opacity:1;stroke:none;stroke-width:0.26458332"
       x="54.023163"
       y="276.18073"
       id="text952-0"><tspan
         sodipodi:role="line"
         id="tspan950-8"
         x="54.023163"
         y="276.18073"
         style="stroke-width:0.26458332">Sequence number</tspan></text>
    <path
       sodipodi:nodetypes="cc"
       inkscape:connector-curvature="0"
       id="path879-1"
       d="m 131.40192,278.59248 1e-5,4.05916"
       style="fill:none;stroke:#000000;stroke-width:0.26458332px;stroke-linecap:butt;stroke-linejoin:miter;stroke-opacity:1" />
    <path
       sodipodi:nodetypes="cc"
       inkscape:connector-curvature="0"
       id="path879-8-7-1"
       d="m 131.40193,282.65164 0.008,2.66623"
       style="fill:none;stroke:#000000;stroke-width:0.26458332px;stroke-linecap:butt;stroke-linejoin:miter;stroke-opacity:1" />
    <path
       sodipodi:nodetypes="cc"
       inkscape:connector-curvature="0"
       id="path879-1-7"
       d="m 2.8227998,278.59335 1e-5,4.05916"
       style="fill:none;stroke:#000000;stroke-width:0.26458332px;stroke-linecap:butt;stroke-linejoin:miter;stroke-opacity:1" />
    <path
       sodipodi:nodetypes="cc"
       inkscape:connector-curvature="0"
       id="path879-8-7-1-5"
       d="m 2.8228098,282.65251 -0.00676,2.61603"
       style="fill:none;stroke:#000000;stroke-width:0.26458332px;stroke-linecap:butt;stroke-linejoin:miter;stroke-opacity:1" />
    <text
       xml:space="preserve"
       style="font-style:normal;font-variant:normal;font-weight:normal;font-stretch:normal;font-size:3.52777767px;line-height:1.25;font-family:Calibri;-inkscape-font-specification:Calibri;letter-spacing:0px;word-spacing:0px;fill:#000000;fill-opacity:1;stroke:none;stroke-width:0.26458332"
       x="40.389011"
       y="262.86041"
       id="text952-0-0"><tspan
         sodipodi:role="line"
         id="tspan950-8-6"
         x="40.389011"
         y="262.86041"
         style="stroke-width:0.26458332">Payload length</tspan></text>
    <text
       xml:space="preserve"
       style="font-style:normal;font-variant:normal;font-weight:normal;font-stretch:normal;font-size:3.52777767px;line-height:1.25;font-family:Calibri;-inkscape-font-specification:Calibri;letter-spacing:0px;word-spacing:0px;fill:#000000;fill-opacity:1;stroke:none;stroke-width:0.26458332"
       x="9.7422991"
       y="263.15497"
       id="text1023-6-5"><tspan
         sodipodi:role="line"
         id="tspan1021-9"
         x="9.7422991"
         y="263.15497"
         style="stroke-width:0.26458332">Next Header</tspan></text>
    <text
       xml:space="preserve"
       style="font-style:normal;font-variant:normal;font-weight:normal;font-stretch:normal;font-size:3.52777767px;line-height:1.25;font-family:Calibri;-inkscape-font-specification:Calibri;letter-spacing:0px;word-spacing:0px;fill:#000000;fill-opacity:1;stroke:none;stroke-width:0.26458332"
       x="92.582397"
       y="263.15497"
       id="text952-0-0-8"><tspan
         sodipodi:role="line"
         id="tspan950-8-6-9"
         x="92.582397"
         y="263.15497"
         style="stroke-width:0.26458332">Reserved</tspan></text>
  </g>
</svg>
